<?xml version="1.0" encoding="utf-8"?>
<!-- Generator: Adobe Illustrator 16.0.0, SVG Export Plug-In . SVG Version: 6.00 Build 0)  -->
<!DOCTYPE svg PUBLIC "-//W3C//DTD SVG 1.1//EN" "http://www.w3.org/Graphics/SVG/1.1/DTD/svg11.dtd">
<svg version="1.1" xmlns="http://www.w3.org/2000/svg" xmlns:xlink="http://www.w3.org/1999/xlink" x="0px" y="0px"
	 width="59.875px" height="9.969px" viewBox="-5.141 7.016 59.875 9.969" enable-background="new -5.141 7.016 59.875 9.969"
	 xml:space="preserve">
<g id="off">
	<g id="_x35__1_">
		<path fill="#3286A4" d="M49.788,8.126c2.136,0,3.874,1.738,3.874,3.875c0,2.136-1.738,3.873-3.874,3.873s-3.874-1.737-3.874-3.873
			C45.914,9.864,47.652,8.126,49.788,8.126 M49.788,7.126c-2.69,0-4.874,2.183-4.874,4.875c0,2.69,2.184,4.873,4.874,4.873
			c2.691,0,4.874-2.183,4.874-4.873C54.662,9.309,52.479,7.126,49.788,7.126L49.788,7.126z"/>
	</g>
	<g id="_x34__1_">
		<path fill="#3286A4" d="M37.304,8.126c2.137,0,3.875,1.738,3.875,3.875c0,2.136-1.738,3.873-3.875,3.873
			c-2.136,0-3.873-1.737-3.873-3.873C33.431,9.864,35.168,8.126,37.304,8.126 M37.304,7.126c-2.689,0-4.873,2.183-4.873,4.875
			c0,2.69,2.184,4.873,4.873,4.873c2.692,0,4.875-2.183,4.875-4.873C42.179,9.309,39.996,7.126,37.304,7.126L37.304,7.126z"/>
	</g>
	<g id="_x33__1_">
		<path fill="#3286A4" d="M24.821,8.126c2.136,0,3.873,1.738,3.873,3.875c0,2.136-1.737,3.873-3.873,3.873
			c-2.136,0-3.874-1.737-3.874-3.873C20.947,9.864,22.685,8.126,24.821,8.126 M24.821,7.126c-2.691,0-4.874,2.183-4.874,4.875
			c0,2.69,2.183,4.873,4.874,4.873c2.689,0,4.873-2.183,4.873-4.873C29.694,9.309,27.511,7.126,24.821,7.126L24.821,7.126z"/>
	</g>
	<g id="_x32__1_">
		<path fill="#3286A4" d="M12.337,8.126c2.136,0,3.875,1.738,3.875,3.875c0,2.136-1.738,3.873-3.875,3.873
			c-2.136,0-3.874-1.737-3.874-3.873C8.463,9.864,10.201,8.126,12.337,8.126 M12.337,7.126c-2.691,0-4.874,2.183-4.874,4.875
			c0,2.69,2.182,4.873,4.874,4.873c2.692,0,4.875-2.183,4.875-4.873C17.211,9.309,15.029,7.126,12.337,7.126L12.337,7.126z"/>
	</g>
	<g id="_x31__1_">
		<path fill="#3286A4" d="M-0.146,8.126c2.136,0,3.874,1.738,3.874,3.875c0,2.136-1.738,3.873-3.874,3.873s-3.874-1.737-3.874-3.873
			C-4.021,9.864-2.283,8.126-0.146,8.126 M-0.146,7.126c-2.692,0-4.874,2.183-4.874,4.875c0,2.69,2.182,4.873,4.874,4.873
			c2.69,0,4.874-2.183,4.874-4.873C4.728,9.309,2.544,7.126-0.146,7.126L-0.146,7.126z"/>
	</g>
</g>
<g id="light">
	<circle id="_x35_" display="none" fill="#3286A4" cx="49.777" cy="12" r="4.874"/>
	<path id="_x34_" fill="#3286A4" d="M37.293,7.126c2.692,0,4.875,2.183,4.875,4.875c0,2.69-2.183,4.873-4.875,4.873
		c-2.689,0-4.873-2.183-4.873-4.873C32.42,9.309,34.604,7.126,37.293,7.126z"/>
	<circle id="_x33_" fill="#3286A4" cx="24.81" cy="12" r="4.874"/>
	<circle id="_x32_" fill="#3286A4" cx="12.326" cy="12" r="4.874"/>
	<circle id="_x31_" fill="#3286A4" cx="-0.157" cy="12" r="4.874"/>
</g>
</svg>
