<?xml version="1.0" encoding="utf-8"?>
<!-- Generator: Adobe Illustrator 16.0.0, SVG Export Plug-In . SVG Version: 6.00 Build 0)  -->
<!DOCTYPE svg PUBLIC "-//W3C//DTD SVG 1.1//EN" "http://www.w3.org/Graphics/SVG/1.1/DTD/svg11.dtd">
<svg version="1.1" xmlns="http://www.w3.org/2000/svg" xmlns:xlink="http://www.w3.org/1999/xlink" x="0px" y="0px"
	 width="59.875px" height="9.969px" viewBox="-5.141 7.016 59.875 9.969" enable-background="new -5.141 7.016 59.875 9.969"
	 xml:space="preserve">
<g id="off">
	<g id="_x35__1_">
		<circle fill="#3286A4" cx="49.788" cy="12" r="4.874"/>
	</g>
	<g id="_x34__1_">
		<path fill="#3286A4" d="M37.304,7.126c2.692,0,4.875,2.183,4.875,4.875c0,2.69-2.183,4.873-4.875,4.873
			c-2.689,0-4.873-2.183-4.873-4.873C32.431,9.309,34.614,7.126,37.304,7.126z"/>
	</g>
	<g id="_x33__1_">
		<circle fill="#3286A4" cx="24.821" cy="12" r="4.874"/>
	</g>
	<g id="_x32__1_">
		<circle fill="#3286A4" cx="12.337" cy="12" r="4.874"/>
	</g>
	<g id="_x31__1_">
		<circle fill="#3286A4" cx="-0.146" cy="12" r="4.874"/>
	</g>
</g>
<g id="light">
	<circle id="_x35_" fill="#3286A4" cx="49.777" cy="12" r="4.874"/>
	<path id="_x34_" fill="#3286A4" d="M37.293,7.126c2.692,0,4.875,2.183,4.875,4.875c0,2.69-2.183,4.873-4.875,4.873
		c-2.689,0-4.873-2.183-4.873-4.873C32.42,9.309,34.604,7.126,37.293,7.126z"/>
	<circle id="_x33_" fill="#3286A4" cx="24.81" cy="12" r="4.874"/>
	<circle id="_x32_" fill="#3286A4" cx="12.326" cy="12" r="4.874"/>
	<circle id="_x31_" fill="#3286A4" cx="-0.157" cy="12" r="4.874"/>
</g>
</svg>
