<?xml version="1.0" encoding="utf-8"?>
<!-- Generator: Adobe Illustrator 16.0.0, SVG Export Plug-In . SVG Version: 6.00 Build 0)  -->
<!DOCTYPE svg PUBLIC "-//W3C//DTD SVG 1.1//EN" "http://www.w3.org/Graphics/SVG/1.1/DTD/svg11.dtd">
<svg version="1.1" xmlns="http://www.w3.org/2000/svg" xmlns:xlink="http://www.w3.org/1999/xlink" x="0px" y="0px"
	 width="1033.135px" height="355.895px" viewBox="0 0 1033.135 355.895" enable-background="new 0 0 1033.135 355.895"
	 xml:space="preserve">
<g id="Layer_2" display="none">
	
		<text transform="matrix(1 0 0 1 -4.8682 355.8945)" display="inline" fill="#FFFFFF" font-family="'SegoeUI'" font-size="72" letter-spacing="50">LEVEL GAMING</text>
</g>
<g id="Layer_1">
	<g>
		<path fill-rule="evenodd" clip-rule="evenodd" fill="#F4F4F4" d="M460.688,296.186c-153.624,0-307.094,0-460.688,0
			C0,197.476,0,98.785,0,0c21.978,0,43.936,0,66.061,0c0,76.695,0,153.358,0,230.263c0.875,0,1.587,0,2.299,0
			c119.822,0.004,239.644,0.012,359.467-0.036c1.637,0,2.397,0.534,3.043,1.932c5.286,11.439,10.623,22.854,15.96,34.27
			c4.403,9.419,8.832,18.824,13.244,28.237C460.291,295.127,460.458,295.611,460.688,296.186z"/>
		<path fill-rule="evenodd" clip-rule="evenodd" fill="#F4F4F4" d="M570.967,294.723c1.83-3.882,3.515-7.482,5.222-11.072
			c3.382-7.113,6.779-14.217,10.164-21.328c4.877-10.238,9.77-20.471,14.592-30.735c0.546-1.162,1.244-1.402,2.417-1.401
			c35.819,0.029,71.64,0.025,107.46,0.028c84.79,0.005,169.579,0.012,254.37,0.017c0.517,0,1.033,0,1.744,0
			c0-76.792,0-153.449,0-230.226c22.149,0,44.099,0,66.199,0c0,97.834,0,195.677,0,293.699
			C879.169,294.044,725.231,294.384,570.967,294.723z"/>
		<path fill-rule="evenodd" clip-rule="evenodd" fill="#F4F4F4" d="M84.685,66.124c0-22.133,0-44.056,0-66.169
			c0.48-0.021,1.031-0.067,1.582-0.067c108.463,0.007,216.926,0.02,325.389,0c1.232,0,1.808,0.361,2.347,1.488
			c5.95,12.461,11.976,24.887,17.974,37.325c3.786,7.852,7.554,15.711,11.339,23.563c5.563,11.541,11.138,23.075,16.698,34.616
			c4.375,9.083,8.727,18.178,13.104,27.26c5.972,12.392,11.962,24.775,17.936,37.166c4.309,8.941,8.596,17.891,12.905,26.831
			c5.518,11.444,11.052,22.883,16.571,34.328c3.786,7.851,7.558,15.708,11.342,23.56c5.517,11.446,11.042,22.889,16.563,34.332
			c0.525,1.088,1.088,2.161,1.537,3.279c0.149,0.371,0.146,0.948-0.045,1.288c-1.511,2.702-3.033,5.403-4.683,8.021
			c-0.29,0.462-1.188,0.768-1.804,0.77c-18.621,0.009-37.242-0.041-55.862-0.031c-1.083,0.001-1.6-0.401-2.036-1.292
			c-2.748-5.611-5.522-11.21-8.298-16.808c-5.714-11.524-11.443-23.042-17.15-34.569c-4.474-9.034-8.914-18.085-13.389-27.118
			c-5.617-11.338-11.262-22.662-16.881-34c-3.94-7.951-7.85-15.917-11.789-23.868c-5.617-11.338-11.252-22.667-16.871-34.005
			c-3.94-7.95-7.871-15.906-11.8-23.862c-4.976-10.074-9.963-20.143-14.9-30.237c-0.646-1.32-1.402-1.834-2.97-1.833
			c-63.91,0.051-127.82,0.041-191.729,0.039c-30.929-0.001-61.859-0.002-92.789-0.004C86.299,66.124,85.624,66.124,84.685,66.124z"
			/>
		<path fill-rule="evenodd" clip-rule="evenodd" fill="#F4F4F4" d="M951.034-0.115c0,22.007,0,43.77,0,65.805
			c-0.921,0-1.789,0-2.655,0c-68.795,0.07-137.588,0.13-206.381,0.215c-26.823,0.033-53.646,0.135-80.47,0.137
			c-1.551,0-2.344,0.473-2.993,1.817c-3.338,6.901-6.739,13.77-10.138,20.641c-5.072,10.259-10.165,20.507-15.239,30.766
			c-3.957,8-7.889,16.011-11.844,24.012c-5.632,11.389-11.279,22.771-16.909,34.158c-3.934,7.955-7.843,15.919-11.775,23.872
			c-5.606,11.342-11.231,22.675-16.837,34.018c-3.979,8.049-7.938,16.107-11.911,24.158c-0.339,0.686-0.714,1.354-1.202,2.274
			c-1.595-3.001-3.072-5.771-4.539-8.545c-7.259-13.737-14.52-27.476-21.77-41.218c-3.112-5.898-6.225-11.794-9.262-17.729
			c-0.294-0.577-0.306-1.548-0.027-2.132c5.026-10.517,10.122-20.998,15.193-31.492c3.791-7.847,7.562-15.704,11.354-23.55
			c5.573-11.534,11.166-23.058,16.735-34.595c4.382-9.078,8.728-18.173,13.11-27.25c5.457-11.299,10.94-22.584,16.402-33.88
			c3.793-7.847,7.57-15.701,11.354-23.552c2.735-5.676,5.446-11.363,8.242-17.009c0.222-0.449,1.009-0.859,1.545-0.872
			c3.312-0.08,6.626-0.042,9.939-0.042c105.979-0.002,211.955-0.004,317.934-0.006C949.563-0.115,950.236-0.115,951.034-0.115z"/>
		<path fill-rule="evenodd" clip-rule="evenodd" fill="#F4F4F4" d="M950.646,113.817c0,22.11,0,44.118,0,66.337
			c-109.519,0-219.091,0-328.939,0c1.479-3.16,2.924-6.292,4.407-9.408c3.339-7.014,6.705-14.017,10.045-21.031
			c5.351-11.233,10.697-22.467,16.016-33.716c0.53-1.121,1.589-2.179,2.892-2.181H950.646z"/>
		<path fill-rule="evenodd" clip-rule="evenodd" fill="#F4F4F4" d="M407.897,180.188c-107.91,0-215.515,0-323.239,0
			c0-21.183,0-42.401,0-63.776c0.573-0.026,1.129-0.074,1.686-0.074c96.1-0.013,192.201-0.021,288.3-0.065
			c1.257,0,1.808,0.417,2.344,1.504c6.09,12.333,12.246,24.635,18.373,36.951c3.906,7.85,7.796,15.708,11.689,23.564
			C407.303,178.8,407.515,179.327,407.897,180.188z"/>
	</g>
</g>
</svg>
