<?xml version="1.0" encoding="utf-8"?>
<!-- Generator: Adobe Illustrator 16.0.0, SVG Export Plug-In . SVG Version: 6.00 Build 0)  -->
<!DOCTYPE svg PUBLIC "-//W3C//DTD SVG 1.1//EN" "http://www.w3.org/Graphics/SVG/1.1/DTD/svg11.dtd">
<svg version="1.1" id="Layer_1" xmlns="http://www.w3.org/2000/svg" xmlns:xlink="http://www.w3.org/1999/xlink" x="0px" y="0px"
	 width="24px" height="24px" viewBox="0 0 24 24" enable-background="new 0 0 24 24" xml:space="preserve">
<path fill="#BCD62A" d="M13.718,10.528c0,0.792-0.268,1.829-0.684,2.642c-1.009,1.98-3.063,1.967-3.063-0.14
	c0-0.786,0.27-1.799,0.687-2.58C11.679,8.525,13.718,8.826,13.718,10.528z M24,12c0,6.627-5.373,12-12,12S0,18.627,0,12
	S5.373,0,12,0S24,5.373,24,12z M19,10.806c0-3.246-2.631-5.601-6.256-5.601C7.777,5.205,5,8.354,5,12.278
	c0,3.672,2.467,6.517,7.024,6.517c2.52,0,4.125-0.727,5.123-1.288l-0.688-0.991c-1.021,0.594-2.251,1.137-4.256,1.137
	c-3.429,0-5.733-2.199-5.733-5.473c0-5.714,6.401-6.758,9.214-5.071c2.625,1.642,2.524,5.578,0.582,7.083
	c-1.033,0.826-2.199,0.799-1.82-0.756c0,0,1.212-4.49,1.354-4.976h-1.363l-0.271,0.952c-0.278-0.785-0.943-1.295-1.911-1.295
	c-2.018,0-3.722,2.19-3.722,4.783c0,1.729,0.913,2.804,2.38,2.804c1.283,0,1.95-0.726,2.364-1.373
	C12.975,17.229,19,15.889,19,10.806z"/>
</svg>
